<?xml version='1.0' encoding='iso-8859-1'?>
<!DOCTYPE svg PUBLIC '-//W3C//DTD SVG 1.1//EN' 'http://www.w3.org/Graphics/SVG/1.1/DTD/svg11.dtd'>
<svg version="1.1" xmlns="http://www.w3.org/2000/svg" viewBox="0 0 297 297" xmlns:xlink="http://www.w3.org/1999/xlink" enable-background="new 0 0 297 297">
  <g>
    <path d="m157.235,86.839v-46.862c0-4.824-3.911-8.735-8.735-8.735s-8.735,3.911-8.735,8.735v43.244l-13.063,13.062c-3.411,3.411-3.411,8.943 0,12.354 1.706,1.705 3.941,2.558 6.177,2.558 2.236,0 4.471-0.853 6.177-2.558l15.621-15.621c1.638-1.639 2.558-3.861 2.558-6.177z"/>
    <path d="m266.827,229.639v-18.464c0-4.824-3.911-8.735-8.735-8.735h-100.857v-29.201c43.797-4.395 78.104-41.465 78.104-86.4 0-47.883-38.955-86.839-86.839-86.839s-86.839,38.956-86.839,86.839c0,44.935 34.307,82.005 78.104,86.4v29.201h-100.857c-4.824,0-8.735,3.911-8.735,8.735v18.464c-14.939,3.651-26.062,17.143-26.062,33.19 0,18.841 15.329,34.17 34.17,34.17s34.17-15.329 34.17-34.17c0-15.595-10.505-28.774-24.808-32.856v-10.063h92.121v9.884c-14.623,3.87-25.435,17.212-25.435,33.034 0,18.841 15.329,34.17 34.17,34.17s34.17-15.329 34.17-34.17c0-15.823-10.812-29.164-25.435-33.034v-9.884h92.121v10.063c-14.302,4.082-24.808,17.261-24.808,32.856 0,18.841 15.329,34.17 34.17,34.17s34.17-15.329 34.17-34.17c0.002-16.047-11.121-29.539-26.06-33.19zm-187.696-142.8c0-38.25 31.118-69.369 69.369-69.369s69.369,31.118 69.369,69.369-31.118,69.369-69.369,69.369-69.369-31.119-69.369-69.369zm-24.15,175.991c0,9.208-7.492,16.7-16.7,16.7s-16.7-7.492-16.7-16.7c0-9.208 7.492-16.7 16.7-16.7s16.7,7.492 16.7,16.7zm110.219,0c0,9.208-7.492,16.7-16.7,16.7s-16.7-7.492-16.7-16.7c0-9.208 7.492-16.7 16.7-16.7s16.7,7.492 16.7,16.7zm93.519,16.699c-9.208,0-16.7-7.492-16.7-16.7 0-9.208 7.492-16.7 16.7-16.7 9.208,0 16.7,7.492 16.7,16.7 0,9.209-7.492,16.7-16.7,16.7z"/>
  </g>
</svg>
